<mxfile host="app.diagrams.net" modified="2023-11-21T20:17:46.729Z" agent="Mozilla/5.0 (Windows NT 10.0; Win64; x64) AppleWebKit/537.36 (KHTML, like Gecko) Chrome/118.0.0.0 Safari/537.36 OPR/104.0.0.0 (Edition Yx GX)" etag="DRDYBRZswcTCnlbAGL0Q" version="22.1.3" type="github">
  <diagram id="C5RBs43oDa-KdzZeNtuy" name="Page-1">
    <mxGraphModel dx="-239" dy="2460" grid="1" gridSize="10" guides="1" tooltips="1" connect="1" arrows="1" fold="1" page="1" pageScale="1" pageWidth="827" pageHeight="1169" math="0" shadow="0">
      <root>
        <mxCell id="WIyWlLk6GJQsqaUBKTNV-0" />
        <mxCell id="WIyWlLk6GJQsqaUBKTNV-1" parent="WIyWlLk6GJQsqaUBKTNV-0" />
        <mxCell id="GNO6USK1mVIaO3W19sfF-37" style="edgeStyle=orthogonalEdgeStyle;rounded=0;orthogonalLoop=1;jettySize=auto;html=1;exitX=0.5;exitY=1;exitDx=0;exitDy=0;entryX=0.5;entryY=0;entryDx=0;entryDy=0;" edge="1" parent="WIyWlLk6GJQsqaUBKTNV-1" source="GNO6USK1mVIaO3W19sfF-33" target="GNO6USK1mVIaO3W19sfF-36">
          <mxGeometry relative="1" as="geometry" />
        </mxCell>
        <mxCell id="GNO6USK1mVIaO3W19sfF-33" value="&lt;p style=&quot;line-height: 110%;&quot;&gt;&lt;span style=&quot;font-size: 18px;&quot;&gt;readline&lt;/span&gt;&lt;/p&gt;" style="ellipse;whiteSpace=wrap;html=1;" vertex="1" parent="WIyWlLk6GJQsqaUBKTNV-1">
          <mxGeometry x="2885" y="-522" width="110" height="60" as="geometry" />
        </mxCell>
        <mxCell id="GNO6USK1mVIaO3W19sfF-36" value="s[82] = {0}" style="rounded=0;whiteSpace=wrap;html=1;fontSize=20;" vertex="1" parent="WIyWlLk6GJQsqaUBKTNV-1">
          <mxGeometry x="2860" y="-411" width="160" height="51" as="geometry" />
        </mxCell>
        <mxCell id="GNO6USK1mVIaO3W19sfF-38" style="edgeStyle=orthogonalEdgeStyle;rounded=0;orthogonalLoop=1;jettySize=auto;html=1;exitX=0.5;exitY=1;exitDx=0;exitDy=0;entryX=0.5;entryY=0;entryDx=0;entryDy=0;" edge="1" parent="WIyWlLk6GJQsqaUBKTNV-1" target="GNO6USK1mVIaO3W19sfF-39" source="GNO6USK1mVIaO3W19sfF-36">
          <mxGeometry relative="1" as="geometry">
            <mxPoint x="2940" y="-351" as="sourcePoint" />
          </mxGeometry>
        </mxCell>
        <mxCell id="GNO6USK1mVIaO3W19sfF-39" value="res = malloc(1)" style="rounded=0;whiteSpace=wrap;html=1;fontSize=20;" vertex="1" parent="WIyWlLk6GJQsqaUBKTNV-1">
          <mxGeometry x="2860" y="-300" width="160" height="51" as="geometry" />
        </mxCell>
        <mxCell id="GNO6USK1mVIaO3W19sfF-40" style="edgeStyle=orthogonalEdgeStyle;rounded=0;orthogonalLoop=1;jettySize=auto;html=1;exitX=0.5;exitY=1;exitDx=0;exitDy=0;entryX=0.5;entryY=0;entryDx=0;entryDy=0;" edge="1" parent="WIyWlLk6GJQsqaUBKTNV-1" target="GNO6USK1mVIaO3W19sfF-41">
          <mxGeometry relative="1" as="geometry">
            <mxPoint x="2940" y="-249" as="sourcePoint" />
          </mxGeometry>
        </mxCell>
        <mxCell id="GNO6USK1mVIaO3W19sfF-41" value="res[0] = &#39;\0&#39;" style="rounded=0;whiteSpace=wrap;html=1;fontSize=20;" vertex="1" parent="WIyWlLk6GJQsqaUBKTNV-1">
          <mxGeometry x="2860" y="-189" width="160" height="51" as="geometry" />
        </mxCell>
        <mxCell id="GNO6USK1mVIaO3W19sfF-42" style="edgeStyle=orthogonalEdgeStyle;rounded=0;orthogonalLoop=1;jettySize=auto;html=1;exitX=0.5;exitY=1;exitDx=0;exitDy=0;entryX=0.5;entryY=0;entryDx=0;entryDy=0;" edge="1" parent="WIyWlLk6GJQsqaUBKTNV-1" target="GNO6USK1mVIaO3W19sfF-47">
          <mxGeometry relative="1" as="geometry">
            <mxPoint x="2940" y="-138" as="sourcePoint" />
            <mxPoint x="2965" y="-78" as="targetPoint" />
          </mxGeometry>
        </mxCell>
        <mxCell id="GNO6USK1mVIaO3W19sfF-44" style="edgeStyle=orthogonalEdgeStyle;rounded=0;orthogonalLoop=1;jettySize=auto;html=1;exitX=0.5;exitY=1;exitDx=0;exitDy=0;entryX=0.5;entryY=0;entryDx=0;entryDy=0;" edge="1" parent="WIyWlLk6GJQsqaUBKTNV-1">
          <mxGeometry relative="1" as="geometry">
            <mxPoint x="2940" y="-27" as="sourcePoint" />
            <mxPoint x="2940" y="50" as="targetPoint" />
          </mxGeometry>
        </mxCell>
        <mxCell id="GNO6USK1mVIaO3W19sfF-47" value="&lt;span style=&quot;font-size: 20px;&quot;&gt;in = (scanf(&quot;%81[^\n]&quot;, s)&lt;/span&gt;&lt;span style=&quot;font-size: 25px;&quot;&gt;&lt;br&gt;&lt;/span&gt;" style="shape=parallelogram;perimeter=parallelogramPerimeter;whiteSpace=wrap;html=1;fixedSize=1;" vertex="1" parent="WIyWlLk6GJQsqaUBKTNV-1">
          <mxGeometry x="2812.5" y="-80" width="255" height="60" as="geometry" />
        </mxCell>
        <mxCell id="GNO6USK1mVIaO3W19sfF-49" style="edgeStyle=orthogonalEdgeStyle;rounded=0;orthogonalLoop=1;jettySize=auto;html=1;exitX=1;exitY=0.5;exitDx=0;exitDy=0;" edge="1" parent="WIyWlLk6GJQsqaUBKTNV-1" source="GNO6USK1mVIaO3W19sfF-48">
          <mxGeometry relative="1" as="geometry">
            <mxPoint x="3130" y="190" as="targetPoint" />
          </mxGeometry>
        </mxCell>
        <mxCell id="GNO6USK1mVIaO3W19sfF-54" style="edgeStyle=orthogonalEdgeStyle;rounded=0;orthogonalLoop=1;jettySize=auto;html=1;exitX=0;exitY=0.5;exitDx=0;exitDy=0;" edge="1" parent="WIyWlLk6GJQsqaUBKTNV-1" source="GNO6USK1mVIaO3W19sfF-48">
          <mxGeometry relative="1" as="geometry">
            <mxPoint x="2940" y="430" as="targetPoint" />
            <Array as="points">
              <mxPoint x="2760" y="100" />
              <mxPoint x="2760" y="390" />
              <mxPoint x="2940" y="390" />
            </Array>
          </mxGeometry>
        </mxCell>
        <mxCell id="GNO6USK1mVIaO3W19sfF-48" value="&lt;span style=&quot;font-size: 20px;&quot;&gt;in == 0&lt;/span&gt;" style="rhombus;whiteSpace=wrap;html=1;" vertex="1" parent="WIyWlLk6GJQsqaUBKTNV-1">
          <mxGeometry x="2870" y="50" width="140" height="100.5" as="geometry" />
        </mxCell>
        <mxCell id="GNO6USK1mVIaO3W19sfF-55" style="edgeStyle=orthogonalEdgeStyle;rounded=0;orthogonalLoop=1;jettySize=auto;html=1;exitX=0.5;exitY=1;exitDx=0;exitDy=0;endArrow=none;endFill=0;" edge="1" parent="WIyWlLk6GJQsqaUBKTNV-1" source="GNO6USK1mVIaO3W19sfF-51">
          <mxGeometry relative="1" as="geometry">
            <mxPoint x="2940" y="410" as="targetPoint" />
            <Array as="points">
              <mxPoint x="3132" y="390" />
              <mxPoint x="2940" y="390" />
            </Array>
          </mxGeometry>
        </mxCell>
        <mxCell id="GNO6USK1mVIaO3W19sfF-51" value="&lt;span style=&quot;font-size: 20px;&quot;&gt;in = (scanf(&quot;%81[^\n]&quot;, s)&lt;/span&gt;&lt;span style=&quot;font-size: 25px;&quot;&gt;&lt;br&gt;&lt;/span&gt;" style="shape=parallelogram;perimeter=parallelogramPerimeter;whiteSpace=wrap;html=1;fixedSize=1;" vertex="1" parent="WIyWlLk6GJQsqaUBKTNV-1">
          <mxGeometry x="3005" y="260" width="255" height="60" as="geometry" />
        </mxCell>
        <mxCell id="GNO6USK1mVIaO3W19sfF-53" style="edgeStyle=orthogonalEdgeStyle;rounded=0;orthogonalLoop=1;jettySize=auto;html=1;exitX=0.5;exitY=1;exitDx=0;exitDy=0;entryX=0.5;entryY=0;entryDx=0;entryDy=0;" edge="1" parent="WIyWlLk6GJQsqaUBKTNV-1" source="GNO6USK1mVIaO3W19sfF-52" target="GNO6USK1mVIaO3W19sfF-51">
          <mxGeometry relative="1" as="geometry" />
        </mxCell>
        <mxCell id="GNO6USK1mVIaO3W19sfF-52" value="&lt;span style=&quot;font-size: 20px;&quot;&gt;Очистка буфера ввода&lt;/span&gt;" style="shape=parallelogram;perimeter=parallelogramPerimeter;whiteSpace=wrap;html=1;fixedSize=1;" vertex="1" parent="WIyWlLk6GJQsqaUBKTNV-1">
          <mxGeometry x="3005" y="161.5" width="255" height="60" as="geometry" />
        </mxCell>
        <mxCell id="GNO6USK1mVIaO3W19sfF-57" style="edgeStyle=orthogonalEdgeStyle;rounded=0;orthogonalLoop=1;jettySize=auto;html=1;exitX=1;exitY=0.5;exitDx=0;exitDy=0;entryX=0.5;entryY=0;entryDx=0;entryDy=0;" edge="1" parent="WIyWlLk6GJQsqaUBKTNV-1" source="GNO6USK1mVIaO3W19sfF-56" target="GNO6USK1mVIaO3W19sfF-58">
          <mxGeometry relative="1" as="geometry">
            <mxPoint x="3109.9999999999995" y="590" as="targetPoint" />
          </mxGeometry>
        </mxCell>
        <mxCell id="GNO6USK1mVIaO3W19sfF-67" style="edgeStyle=orthogonalEdgeStyle;rounded=0;orthogonalLoop=1;jettySize=auto;html=1;exitX=0;exitY=0.5;exitDx=0;exitDy=0;" edge="1" parent="WIyWlLk6GJQsqaUBKTNV-1" source="GNO6USK1mVIaO3W19sfF-56">
          <mxGeometry relative="1" as="geometry">
            <mxPoint x="2800" y="560" as="targetPoint" />
          </mxGeometry>
        </mxCell>
        <mxCell id="GNO6USK1mVIaO3W19sfF-56" value="&lt;span style=&quot;font-size: 20px;&quot;&gt;in == 0&lt;/span&gt;" style="rhombus;whiteSpace=wrap;html=1;" vertex="1" parent="WIyWlLk6GJQsqaUBKTNV-1">
          <mxGeometry x="2870" y="430.5" width="140" height="100.5" as="geometry" />
        </mxCell>
        <mxCell id="GNO6USK1mVIaO3W19sfF-60" style="edgeStyle=orthogonalEdgeStyle;rounded=0;orthogonalLoop=1;jettySize=auto;html=1;exitX=0.5;exitY=1;exitDx=0;exitDy=0;entryX=0.5;entryY=0;entryDx=0;entryDy=0;" edge="1" parent="WIyWlLk6GJQsqaUBKTNV-1" source="GNO6USK1mVIaO3W19sfF-58" target="GNO6USK1mVIaO3W19sfF-59">
          <mxGeometry relative="1" as="geometry" />
        </mxCell>
        <mxCell id="GNO6USK1mVIaO3W19sfF-58" value="tmp = res" style="rounded=0;whiteSpace=wrap;html=1;fontSize=20;" vertex="1" parent="WIyWlLk6GJQsqaUBKTNV-1">
          <mxGeometry x="2995" y="585" width="230" height="51" as="geometry" />
        </mxCell>
        <mxCell id="GNO6USK1mVIaO3W19sfF-59" value="res = strcat(s, res)" style="rounded=0;whiteSpace=wrap;html=1;fontSize=20;" vertex="1" parent="WIyWlLk6GJQsqaUBKTNV-1">
          <mxGeometry x="2995" y="680" width="230" height="51" as="geometry" />
        </mxCell>
        <mxCell id="GNO6USK1mVIaO3W19sfF-61" style="edgeStyle=orthogonalEdgeStyle;rounded=0;orthogonalLoop=1;jettySize=auto;html=1;exitX=0.5;exitY=1;exitDx=0;exitDy=0;entryX=0.5;entryY=0;entryDx=0;entryDy=0;" edge="1" parent="WIyWlLk6GJQsqaUBKTNV-1" target="GNO6USK1mVIaO3W19sfF-62">
          <mxGeometry relative="1" as="geometry">
            <mxPoint x="3110" y="731" as="sourcePoint" />
          </mxGeometry>
        </mxCell>
        <mxCell id="GNO6USK1mVIaO3W19sfF-62" value="free(tmp)" style="rounded=0;whiteSpace=wrap;html=1;fontSize=20;" vertex="1" parent="WIyWlLk6GJQsqaUBKTNV-1">
          <mxGeometry x="2995" y="775" width="230" height="51" as="geometry" />
        </mxCell>
        <mxCell id="GNO6USK1mVIaO3W19sfF-63" style="edgeStyle=orthogonalEdgeStyle;rounded=0;orthogonalLoop=1;jettySize=auto;html=1;exitX=0.5;exitY=1;exitDx=0;exitDy=0;entryX=0.5;entryY=0;entryDx=0;entryDy=0;" edge="1" parent="WIyWlLk6GJQsqaUBKTNV-1" target="GNO6USK1mVIaO3W19sfF-65">
          <mxGeometry relative="1" as="geometry">
            <mxPoint x="3110" y="826" as="sourcePoint" />
            <mxPoint x="3110.0000000000005" y="869.9999999999995" as="targetPoint" />
          </mxGeometry>
        </mxCell>
        <mxCell id="GNO6USK1mVIaO3W19sfF-66" style="edgeStyle=orthogonalEdgeStyle;rounded=0;orthogonalLoop=1;jettySize=auto;html=1;exitX=0.5;exitY=1;exitDx=0;exitDy=0;" edge="1" parent="WIyWlLk6GJQsqaUBKTNV-1" source="GNO6USK1mVIaO3W19sfF-65">
          <mxGeometry relative="1" as="geometry">
            <mxPoint x="2940" y="410" as="targetPoint" />
            <Array as="points">
              <mxPoint x="3110" y="1000" />
              <mxPoint x="3320" y="1000" />
              <mxPoint x="3320" y="410" />
            </Array>
          </mxGeometry>
        </mxCell>
        <mxCell id="GNO6USK1mVIaO3W19sfF-65" value="&lt;span style=&quot;font-size: 20px;&quot;&gt;in = (scanf(&quot;%81[^\n]&quot;, s)&lt;/span&gt;&lt;span style=&quot;font-size: 25px;&quot;&gt;&lt;br&gt;&lt;/span&gt;" style="shape=parallelogram;perimeter=parallelogramPerimeter;whiteSpace=wrap;html=1;fixedSize=1;" vertex="1" parent="WIyWlLk6GJQsqaUBKTNV-1">
          <mxGeometry x="2982.5" y="870" width="255" height="60" as="geometry" />
        </mxCell>
        <mxCell id="GNO6USK1mVIaO3W19sfF-69" value="&lt;span style=&quot;font-size: 25px;&quot;&gt;res&lt;br&gt;&lt;/span&gt;" style="shape=parallelogram;perimeter=parallelogramPerimeter;whiteSpace=wrap;html=1;fixedSize=1;" vertex="1" parent="WIyWlLk6GJQsqaUBKTNV-1">
          <mxGeometry x="2740" y="560" width="120" height="60" as="geometry" />
        </mxCell>
        <mxCell id="GNO6USK1mVIaO3W19sfF-71" value="" style="edgeStyle=orthogonalEdgeStyle;rounded=0;orthogonalLoop=1;jettySize=auto;html=1;exitX=0.5;exitY=1;exitDx=0;exitDy=0;" edge="1" parent="WIyWlLk6GJQsqaUBKTNV-1">
          <mxGeometry relative="1" as="geometry">
            <mxPoint x="2800.55" y="669" as="targetPoint" />
            <mxPoint x="2800.55" y="620" as="sourcePoint" />
          </mxGeometry>
        </mxCell>
        <mxCell id="GNO6USK1mVIaO3W19sfF-72" value="&lt;p style=&quot;line-height: 110%;&quot;&gt;&lt;span style=&quot;font-size: 18px;&quot;&gt;Конец&lt;/span&gt;&lt;/p&gt;" style="ellipse;whiteSpace=wrap;html=1;" vertex="1" parent="WIyWlLk6GJQsqaUBKTNV-1">
          <mxGeometry x="2745" y="668" width="110" height="60" as="geometry" />
        </mxCell>
        <mxCell id="GNO6USK1mVIaO3W19sfF-73" value="&lt;font style=&quot;font-size: 20px;&quot;&gt;Да&lt;/font&gt;" style="edgeLabel;html=1;align=center;verticalAlign=middle;resizable=0;points=[];" vertex="1" connectable="0" parent="WIyWlLk6GJQsqaUBKTNV-1">
          <mxGeometry x="2789.996132462128" y="105.25" as="geometry">
            <mxPoint x="51" y="376" as="offset" />
          </mxGeometry>
        </mxCell>
        <mxCell id="GNO6USK1mVIaO3W19sfF-74" value="&lt;font style=&quot;font-size: 20px;&quot;&gt;Да&lt;/font&gt;" style="edgeLabel;html=1;align=center;verticalAlign=middle;resizable=0;points=[];" vertex="1" connectable="0" parent="WIyWlLk6GJQsqaUBKTNV-1">
          <mxGeometry x="3019.996132462128" y="-280" as="geometry">
            <mxPoint x="51" y="376" as="offset" />
          </mxGeometry>
        </mxCell>
        <mxCell id="GNO6USK1mVIaO3W19sfF-75" value="&lt;p style=&quot;line-height: 110%;&quot;&gt;&lt;span style=&quot;font-size: 18px;&quot;&gt;strncat&lt;/span&gt;&lt;/p&gt;" style="ellipse;whiteSpace=wrap;html=1;" vertex="1" parent="WIyWlLk6GJQsqaUBKTNV-1">
          <mxGeometry x="3526.5" y="-522" width="110" height="60" as="geometry" />
        </mxCell>
        <mxCell id="GNO6USK1mVIaO3W19sfF-76" style="edgeStyle=orthogonalEdgeStyle;rounded=0;orthogonalLoop=1;jettySize=auto;html=1;exitX=0.5;exitY=1;exitDx=0;exitDy=0;entryX=0.5;entryY=0;entryDx=0;entryDy=0;" edge="1" parent="WIyWlLk6GJQsqaUBKTNV-1" target="GNO6USK1mVIaO3W19sfF-84">
          <mxGeometry relative="1" as="geometry">
            <mxPoint x="3581.5" y="-462" as="sourcePoint" />
          </mxGeometry>
        </mxCell>
        <mxCell id="GNO6USK1mVIaO3W19sfF-77" value="add = malloc(2)" style="rounded=0;whiteSpace=wrap;html=1;fontSize=20;" vertex="1" parent="WIyWlLk6GJQsqaUBKTNV-1">
          <mxGeometry x="3502.5" y="-310" width="160" height="51" as="geometry" />
        </mxCell>
        <mxCell id="GNO6USK1mVIaO3W19sfF-78" style="edgeStyle=orthogonalEdgeStyle;rounded=0;orthogonalLoop=1;jettySize=auto;html=1;exitX=0.5;exitY=1;exitDx=0;exitDy=0;entryX=0.5;entryY=0;entryDx=0;entryDy=0;" edge="1" parent="WIyWlLk6GJQsqaUBKTNV-1" source="GNO6USK1mVIaO3W19sfF-77" target="GNO6USK1mVIaO3W19sfF-79">
          <mxGeometry relative="1" as="geometry">
            <mxPoint x="3581.5" y="-155.5" as="sourcePoint" />
          </mxGeometry>
        </mxCell>
        <mxCell id="GNO6USK1mVIaO3W19sfF-79" value="add[0] = c" style="rounded=0;whiteSpace=wrap;html=1;fontSize=20;" vertex="1" parent="WIyWlLk6GJQsqaUBKTNV-1">
          <mxGeometry x="3502.5" y="-210" width="160" height="51" as="geometry" />
        </mxCell>
        <mxCell id="GNO6USK1mVIaO3W19sfF-87" style="edgeStyle=orthogonalEdgeStyle;rounded=0;orthogonalLoop=1;jettySize=auto;html=1;exitX=0.5;exitY=1;exitDx=0;exitDy=0;entryX=0.5;entryY=0;entryDx=0;entryDy=0;" edge="1" parent="WIyWlLk6GJQsqaUBKTNV-1" source="GNO6USK1mVIaO3W19sfF-84" target="GNO6USK1mVIaO3W19sfF-77">
          <mxGeometry relative="1" as="geometry" />
        </mxCell>
        <mxCell id="GNO6USK1mVIaO3W19sfF-84" value="&lt;span style=&quot;font-size: 25px;&quot;&gt;str, c&lt;br&gt;&lt;/span&gt;" style="shape=parallelogram;perimeter=parallelogramPerimeter;whiteSpace=wrap;html=1;fixedSize=1;" vertex="1" parent="WIyWlLk6GJQsqaUBKTNV-1">
          <mxGeometry x="3522.5" y="-415.5" width="120" height="60" as="geometry" />
        </mxCell>
        <mxCell id="GNO6USK1mVIaO3W19sfF-88" style="edgeStyle=orthogonalEdgeStyle;rounded=0;orthogonalLoop=1;jettySize=auto;html=1;exitX=0.5;exitY=1;exitDx=0;exitDy=0;entryX=0.5;entryY=0;entryDx=0;entryDy=0;" edge="1" parent="WIyWlLk6GJQsqaUBKTNV-1" target="GNO6USK1mVIaO3W19sfF-89">
          <mxGeometry relative="1" as="geometry">
            <mxPoint x="3581.5" y="-159" as="sourcePoint" />
          </mxGeometry>
        </mxCell>
        <mxCell id="GNO6USK1mVIaO3W19sfF-89" value="add[1] = &#39;\0&#39;" style="rounded=0;whiteSpace=wrap;html=1;fontSize=20;" vertex="1" parent="WIyWlLk6GJQsqaUBKTNV-1">
          <mxGeometry x="3501.5" y="-110" width="160" height="51" as="geometry" />
        </mxCell>
        <mxCell id="GNO6USK1mVIaO3W19sfF-90" style="edgeStyle=orthogonalEdgeStyle;rounded=0;orthogonalLoop=1;jettySize=auto;html=1;exitX=0.5;exitY=1;exitDx=0;exitDy=0;entryX=0.5;entryY=0;entryDx=0;entryDy=0;" edge="1" parent="WIyWlLk6GJQsqaUBKTNV-1" target="GNO6USK1mVIaO3W19sfF-91">
          <mxGeometry relative="1" as="geometry">
            <mxPoint x="3581.5" y="-59" as="sourcePoint" />
          </mxGeometry>
        </mxCell>
        <mxCell id="GNO6USK1mVIaO3W19sfF-91" value="tmp = str" style="rounded=0;whiteSpace=wrap;html=1;fontSize=20;" vertex="1" parent="WIyWlLk6GJQsqaUBKTNV-1">
          <mxGeometry x="3501.5" y="-10" width="160" height="51" as="geometry" />
        </mxCell>
        <mxCell id="GNO6USK1mVIaO3W19sfF-92" style="edgeStyle=orthogonalEdgeStyle;rounded=0;orthogonalLoop=1;jettySize=auto;html=1;exitX=0.5;exitY=1;exitDx=0;exitDy=0;entryX=0.5;entryY=0;entryDx=0;entryDy=0;" edge="1" parent="WIyWlLk6GJQsqaUBKTNV-1" target="GNO6USK1mVIaO3W19sfF-93">
          <mxGeometry relative="1" as="geometry">
            <mxPoint x="3581.5" y="41" as="sourcePoint" />
          </mxGeometry>
        </mxCell>
        <mxCell id="GNO6USK1mVIaO3W19sfF-93" value="str = strcat(str, add)" style="rounded=0;whiteSpace=wrap;html=1;fontSize=20;" vertex="1" parent="WIyWlLk6GJQsqaUBKTNV-1">
          <mxGeometry x="3490" y="90" width="185" height="51" as="geometry" />
        </mxCell>
        <mxCell id="GNO6USK1mVIaO3W19sfF-95" style="edgeStyle=orthogonalEdgeStyle;rounded=0;orthogonalLoop=1;jettySize=auto;html=1;exitX=0.5;exitY=1;exitDx=0;exitDy=0;entryX=0.5;entryY=0;entryDx=0;entryDy=0;" edge="1" parent="WIyWlLk6GJQsqaUBKTNV-1" target="GNO6USK1mVIaO3W19sfF-96">
          <mxGeometry relative="1" as="geometry">
            <mxPoint x="3581.5" y="141" as="sourcePoint" />
          </mxGeometry>
        </mxCell>
        <mxCell id="GNO6USK1mVIaO3W19sfF-102" style="edgeStyle=orthogonalEdgeStyle;rounded=0;orthogonalLoop=1;jettySize=auto;html=1;exitX=0.5;exitY=1;exitDx=0;exitDy=0;entryX=0.5;entryY=0;entryDx=0;entryDy=0;" edge="1" parent="WIyWlLk6GJQsqaUBKTNV-1" source="GNO6USK1mVIaO3W19sfF-96" target="GNO6USK1mVIaO3W19sfF-99">
          <mxGeometry relative="1" as="geometry" />
        </mxCell>
        <mxCell id="GNO6USK1mVIaO3W19sfF-96" value="free(tmp), free(add)" style="rounded=0;whiteSpace=wrap;html=1;fontSize=20;" vertex="1" parent="WIyWlLk6GJQsqaUBKTNV-1">
          <mxGeometry x="3490" y="190" width="185" height="51" as="geometry" />
        </mxCell>
        <mxCell id="GNO6USK1mVIaO3W19sfF-99" value="&lt;span style=&quot;font-size: 25px;&quot;&gt;str&lt;br&gt;&lt;/span&gt;" style="shape=parallelogram;perimeter=parallelogramPerimeter;whiteSpace=wrap;html=1;fixedSize=1;" vertex="1" parent="WIyWlLk6GJQsqaUBKTNV-1">
          <mxGeometry x="3521.5" y="280" width="120" height="60" as="geometry" />
        </mxCell>
        <mxCell id="GNO6USK1mVIaO3W19sfF-100" value="" style="edgeStyle=orthogonalEdgeStyle;rounded=0;orthogonalLoop=1;jettySize=auto;html=1;exitX=0.5;exitY=1;exitDx=0;exitDy=0;" edge="1" parent="WIyWlLk6GJQsqaUBKTNV-1">
          <mxGeometry relative="1" as="geometry">
            <mxPoint x="3582.05" y="389" as="targetPoint" />
            <mxPoint x="3582.05" y="340" as="sourcePoint" />
          </mxGeometry>
        </mxCell>
        <mxCell id="GNO6USK1mVIaO3W19sfF-101" value="&lt;p style=&quot;line-height: 110%;&quot;&gt;&lt;span style=&quot;font-size: 18px;&quot;&gt;Конец&lt;/span&gt;&lt;/p&gt;" style="ellipse;whiteSpace=wrap;html=1;" vertex="1" parent="WIyWlLk6GJQsqaUBKTNV-1">
          <mxGeometry x="3526.5" y="388" width="110" height="60" as="geometry" />
        </mxCell>
      </root>
    </mxGraphModel>
  </diagram>
</mxfile>
